<svg width="30" height="30" viewBox="0 0 30 30" fill="none" xmlns="http://www.w3.org/2000/svg">
<path fill-rule="evenodd" clip-rule="evenodd" d="M2.52751 9.98849C1.13851 10.452 1.16851 12.4275 2.57251 12.8475L13.812 16.2105L17.4825 27.7755C17.922 29.1585 19.8765 29.1735 20.3355 27.795L28.29 3.92999C28.3781 3.66569 28.3909 3.38207 28.3269 3.11092C28.263 2.83976 28.1247 2.59179 27.9277 2.39478C27.7307 2.19778 27.4827 2.05954 27.2116 1.99555C26.9404 1.93156 26.6568 1.94435 26.3925 2.03249L2.52751 9.98849ZM7.97701 11.334L24.495 5.82899L18.948 22.473L16.4325 14.547C16.3584 14.3141 16.2285 14.1029 16.0541 13.9316C15.8798 13.7604 15.6662 13.6344 15.432 13.5645L7.97701 11.334Z" fill="#F8F8F8"/>
<path d="M26.6507 2.15997L28.2167 3.77547L14.9747 16.5915L13.4087 14.9745L26.6507 2.15997Z" fill="#F8F8F8"/>
</svg>
