<svg width="20" height="20" viewBox="0 0 20 20" fill="none" xmlns="http://www.w3.org/2000/svg">
<path d="M10.0003 1.66666C14.6028 1.66666 18.3337 5.39749 18.3337 9.99999C18.3337 14.6025 14.6028 18.3333 10.0003 18.3333C5.39783 18.3333 1.66699 14.6025 1.66699 9.99999C1.66699 5.39749 5.39783 1.66666 10.0003 1.66666ZM10.0003 3.33332C8.23222 3.33332 6.53652 4.0357 5.28628 5.28594C4.03604 6.53619 3.33366 8.23188 3.33366 9.99999C3.33366 11.7681 4.03604 13.4638 5.28628 14.714C6.53652 15.9643 8.23222 16.6667 10.0003 16.6667C11.7684 16.6667 13.4641 15.9643 14.7144 14.714C15.9646 13.4638 16.667 11.7681 16.667 9.99999C16.667 8.23188 15.9646 6.53619 14.7144 5.28594C13.4641 4.0357 11.7684 3.33332 10.0003 3.33332ZM10.0003 4.99999C10.2044 5.00002 10.4014 5.07495 10.554 5.21059C10.7065 5.34622 10.8039 5.53311 10.8278 5.73582L10.8337 5.83332V9.65499L13.0895 11.9108C13.2389 12.0608 13.3257 12.262 13.3322 12.4736C13.3386 12.6853 13.2643 12.8914 13.1243 13.0502C12.9843 13.209 12.789 13.3086 12.5783 13.3287C12.3675 13.3487 12.157 13.2878 11.9895 13.1583L11.9112 13.0892L9.41116 10.5892C9.28164 10.4595 9.19846 10.2908 9.17449 10.1092L9.16699 9.99999V5.83332C9.16699 5.61231 9.25479 5.40035 9.41107 5.24407C9.56735 5.08779 9.77931 4.99999 10.0003 4.99999Z" fill="#848AA0"/>
</svg>
